<?xml version="1.0" encoding="UTF-8" standalone="no"?>
<svg width="66px" height="66px" viewBox="0 0 66 66" version="1.1" xmlns="http://www.w3.org/2000/svg" xmlns:xlink="http://www.w3.org/1999/xlink">
    <!-- Generator: Sketch 39.1 (31720) - http://www.bohemiancoding.com/sketch -->
    <title>Bitmap</title>
    <desc>Created with Sketch.</desc>
    <defs>
        <circle id="path-1" cx="33" cy="33" r="33"></circle>
        <polygon id="path-3" points="11.7842154 35.9512025 11.7842154 0.145400173 0.301887248 0.145400173 0.301887248 35.9512025 11.7842154 35.9512025"></polygon>
    </defs>
    <g id="rework" stroke="none" stroke-width="1" fill="none" fill-rule="evenodd">
        <g id="1B.-Home-not-available-Copy-8" transform="translate(-16.000000, -17.000000)">
            <g id="Bitmap" transform="translate(16.000000, 17.000000)">
                <mask id="mask-2" fill="white">
                    <use xlink:href="#path-1"></use>
                </mask>
                <use id="Mask" fill="#FAFAFA" xlink:href="#path-1"></use>
                <g id="Page-1" mask="url(#mask-2)">
                    <g transform="translate(9.240000, 6.600000)">
                        <g id="Group-3" stroke-width="1" fill="none" transform="translate(2.504615, 0.118617)">
                            <path d="M14.2963446,2.47512785 C16.8560615,0.080066717 30.5675785,-1.762288 36.0533123,7.26461917 C41.5377938,16.2921573 38.6130292,14.0819626 41.7212569,19.7920003 C44.8282323,25.5032999 44.8282323,26.2408728 41.9034677,30.2927912 C38.9780769,34.3466026 35.8704754,37.4786056 38.42894,40.2415067 C40.9886569,43.0050388 42.0863046,44.4789226 39.5265877,48.3472365 C36.9668708,52.2161814 45.7424169,56.6378328 42.2685154,61.427955 C38.79524,66.2174463 7.71421538,67.6913301 5.70238308,62.1648969 C3.69180308,56.6378328 6.98286769,52.7695188 4.97228769,50.0059867 C2.96045538,47.2430856 -0.147146154,44.4789226 4.97228769,40.6099777 C7.94025692,38.3676048 3.64859846,36.247635 1.57790769,32.3648094 C-0.772047692,27.9564078 0.711310769,22.4160939 1.86406,20.7138086 C4.60536154,16.6606282 4.05810308,1.37034596 14.2963446,2.47512785" id="Fill-1" fill="#D56C2B"></path>
                        </g>
                        <polygon id="Fill-4" fill="#FFD06E" points="41.4997863 50.727155 38.7778955 99.8076109 24.2636494 99.8076109 10.2146355 99.8076109 7.49337092 50.727155"></polygon>
                        <g id="Group-8" stroke-width="1" fill="none" transform="translate(36.943077, 50.594089)">
                            <mask id="mask-4" fill="white">
                                <use xlink:href="#path-3"></use>
                            </mask>
                            <g id="Clip-7"></g>
                            <path d="M0.379136154,5.77552966 L4.51425615,34.1074119 C5.01768385,37.561827 11.8496485,35.6689968 11.7839023,32.4757923 L11.2447838,6.62604136 C11.0700869,-1.69105449 -0.759837692,-2.03302581 0.379136154,5.77552966" id="Fill-6" fill="#FFD06E" mask="url(#mask-4)"></path>
                        </g>
                        <path d="M11.4040774,56.3696187 L7.26958354,84.701501 C6.76490354,88.1559161 -0.0664349231,86.2630859 0.000563538461,83.0698814 L0.539055846,57.2201304 C0.713126615,48.9030346 12.5430512,48.5610632 11.4040774,56.3696187" id="Fill-9" fill="#FFD06E"></path>
                        <path d="M31.6972226,7.86464634 C35.0559118,10.8906509 36.8773934,13.8699656 36.1673349,17.622186 C35.4566503,21.3744063 36.2524918,24.1108078 40.4915534,25.9285558 C44.7306149,27.7475656 43.3537026,28.3684139 42.9310488,32.6537814 C42.6693165,35.3201482 45.1125688,37.4287611 48.007278,37.0760637 C48.5545365,37.0098146 44.8614811,36.1340652 45.0136365,33.4317346 C45.255958,29.0813799 48.8281657,26.2471822 44.6573549,22.6545905 C40.4865442,19.0632607 40.0958242,17.878349 40.8810211,15.2119822 C41.6637134,12.5456154 39.5848826,8.64449238 35.3527088,5.03549615 C30.2288918,0.666213132 28.3372811,4.83737992 31.6972226,7.86464634" id="Fill-11" fill="#D56C2B"></path>
                        <path d="M14.8448554,24.0488492 C11.7272354,27.327862 10.1211508,30.2087496 11.1173615,33.8947209 C12.1116938,37.5806922 11.5287446,40.370093 7.44183846,42.5127768 C3.35368,44.6560915 4.77504923,45.1677866 5.52330308,49.4064643 C5.98916154,52.0457005 3.71559692,54.3372869 0.802103077,54.2110983 C0.250461538,54.1871224 3.86587385,53.0268175 3.50834,50.3453081 C2.93165231,46.0271315 -0.84656,43.4781202 3.03809846,39.5725805 C6.92150462,35.6670409 5.65416923,35.0405141 4.66797692,32.444182 C3.68303692,29.8459571 6.95782154,25.1580477 10.9664585,21.2821624 C35.4515785,-2.39398853 17.9624754,20.7704673 14.8448554,24.0488492" id="Fill-13" fill="#D56C2B"></path>
                        <path d="M16.8590671,7.86464634 C13.4997517,10.8906509 11.6782702,13.8699656 12.3877025,17.622186 C13.0990132,21.3744063 12.3031717,24.1108078 8.06411015,25.9285558 C3.82504862,27.7475656 5.20258708,28.3684139 5.62461477,32.6537814 C5.88759938,35.3201482 3.44309477,37.4287611 0.549011692,37.0760637 C0.00175323077,37.0098146 3.69480862,36.1340652 3.54327938,33.4317346 C3.29970554,29.0813799 -0.272502154,26.2471822 3.89893477,22.6545905 C8.06974554,19.0632607 8.46046554,17.878349 7.67589477,15.2119822 C6.89195015,12.5456154 8.97078092,8.64449238 13.2048332,5.03549615 C18.3267717,0.666213132 20.2183825,4.83737992 16.8590671,7.86464634" id="Fill-15" fill="#D56C2B"></path>
                        <path d="M34.7197298,23.2549331 C37.6983437,26.6613965 39.1835806,29.6079022 38.0364668,33.2490765 C36.8881006,36.8902509 37.3558375,39.7017346 41.3513252,42.0147731 C45.3468129,44.3278116 43.9054068,44.7795671 42.9812037,48.982912 C42.4063945,51.6000652 44.5841575,53.9856622 47.4995298,53.9825075 C48.0511714,53.9806146 44.4877298,52.6701452 44.9560929,50.0056712 C45.7106083,45.7152562 49.5908837,43.3283973 45.8727822,39.262598 C42.1546806,35.1961678 43.446436,34.6239022 44.5390745,32.0704743 C45.6317129,29.5170463 42.5529145,24.6960078 38.708956,20.6548154 C15.2263083,-4.03147592 31.7398637,19.8478388 34.7197298,23.2549331" id="Fill-17" fill="#D56C2B"></path>
                        <path d="M31.0918571,33.7178675 L31.0918571,50.8252667 C27.4639217,55.6299007 21.5292355,55.4639626 17.9019263,50.8252667 L17.9019263,33.7178675 C17.9019263,24.9269331 31.0918571,24.9275641 31.0918571,33.7178675" id="Fill-19" fill="#FBD9BD"></path>
                        <path d="M31.0918571,33.7178675 L31.0918571,44.6193075 C28.5960078,46.5878509 26.1903248,47.689478 24.4965786,47.689478 C22.8028325,47.689478 20.3965232,46.5878509 17.9019263,44.6199384 L17.9019263,33.7178675 C17.9019263,24.9269331 31.0918571,24.9269331 31.0918571,33.7178675" id="Fill-21" fill="#ECC2A0"></path>
                        <path d="M24.4964534,44.9818475 C20.2029165,44.9818475 11.1305734,38.1783849 8.32665646,28.435357 C5.49518877,18.5970566 10.8281411,4.48663849 24.4964534,4.48663849 C38.166018,4.48663849 43.4983442,18.5970566 40.6656242,28.435357 C37.8617072,38.1790158 28.7912426,44.9818475 24.4964534,44.9818475" id="Fill-23" fill="#FBD9BD"></path>
                        <path d="M19.3233582,35.1723182 C21.512392,33.0378367 23.2192874,34.639171 24.4966412,34.639171 C25.7739951,34.639171 27.4808905,33.0378367 29.668672,35.1723182 C28.4940074,40.8022261 20.8837335,40.9757355 19.3233582,35.1723182" id="Fill-25" fill="#FF386A"></path>
                        <path d="M19.3239217,35.1723182 C21.5117032,33.0378367 23.2185986,34.639171 24.4965786,34.639171 C25.7739325,34.639171 27.4808278,33.0378367 29.6686094,35.1723182 C26.3236955,36.8335922 21.5761971,36.0575318 19.3239217,35.1723182" id="Fill-27" fill="#C81F4A"></path>
                        <path d="M5.62924831,24.0063867 C7.00991754,23.4088833 8.96163908,24.8751958 9.98727908,27.2822448 C11.0129191,29.6886629 10.7255145,32.1241045 9.34484523,32.7222388 C7.96229754,33.3210041 6.01120215,31.8534297 4.984936,29.4476426 C3.95866985,27.0399626 4.24732677,24.6045211 5.62924831,24.0063867" id="Fill-29" fill="#FBD9BD"></path>
                        <path d="M43.7445478,24.0063867 C42.3626263,23.4088833 40.4121571,24.8751958 39.3858909,27.2822448 C38.3596248,29.6886629 38.6476555,32.1241045 40.0289509,32.7222388 C41.4108725,33.3210041 43.362594,31.8534297 44.3876078,29.4476426 C45.413874,27.0399626 45.1258432,24.6045211 43.7445478,24.0063867" id="Fill-31" fill="#FBD9BD"></path>
                        <path d="M17.4387603,8.86708921 C18.4913249,14.0225277 23.9075557,16.7513579 29.0238588,17.5091209 C34.1395357,18.2681458 38.6534788,18.2668839 35.7944603,21.754739 C32.936068,25.2413322 34.5916188,28.4263345 37.3003603,30.3974017 C40.0078495,32.3678379 39.1055618,37.6740718 36.6980003,41.0098696 C34.2904388,44.3456673 33.6887049,47.225293 36.5470972,50.4090334 C39.407368,53.5940356 37.901468,53.7139149 35.4945326,57.6560492 C33.9961465,60.1091571 35.1395034,62.9553428 37.8501234,63.6090002 C38.3629434,63.7326651 35.5346065,61.6354092 36.9515926,59.1097428 C39.2345495,55.0464673 42.4154111,53.5940356 40.4599326,48.7427118 C38.5044542,43.8901262 39.7072957,43.7386998 41.6634003,41.4647798 C43.6195049,39.1902288 44.3721418,33.4284537 41.9645803,28.7285564 C39.5563926,24.028659 43.6195049,25.5454469 43.1674218,19.7836718 C42.7165911,14.0225277 28.7233049,-7.20367004 17.4387603,8.86708921" id="Fill-33" fill="#D56C2B"></path>
                        <path d="M26.4556262,4.51427381 C22.9322585,6.56862551 10.7598277,18.4947176 9.38729846,22.6595749 C8.01539538,26.8256942 9.43989538,30.2372051 10.2676708,33.2979115 C7.30158,32.5508746 -0.0619892308,-0.904899019 26.4556262,4.51427381" id="Fill-35" fill="#D56C2B"></path>
                        <polygon id="Fill-37" fill="#B24D1F" points="16.9171742 47.0512157 13.3437142 49.9882572 19.3303711 59.3495644 24.4961403 54.4105395"></polygon>
                        <polygon id="Fill-39" fill="#B24D1F" points="32.2255086 46.9753763 35.9486194 50.1395574 29.6626609 59.3494382 24.4962655 54.4104133"></polygon>
                    </g>
                </g>
            </g>
        </g>
    </g>
</svg>