<?xml version="1.0" encoding="UTF-8" standalone="no"?>
<svg width="26px" height="28px" viewBox="0 0 26 28" version="1.1" xmlns="http://www.w3.org/2000/svg" xmlns:xlink="http://www.w3.org/1999/xlink">
    <!-- Generator: Sketch 3.7.2 (28276) - http://www.bohemiancoding.com/sketch -->
    <title>bel</title>
    <desc>Created with Sketch.</desc>
    <defs></defs>
    <g id="Page-1" stroke="none" stroke-width="1" fill="none" fill-rule="evenodd">
        <g id="Navigation" transform="translate(-132.000000, -75.000000)" stroke="#FFFFFF" stroke-width="2">
            <g id="bel" transform="translate(133.000000, 76.000000)">
                <path d="M20.5647059,11.375 C20.5647059,7.22647059 17.7976471,3.88088235 13.9764706,2.94411765 L13.9764706,2.00735294 C13.9764706,0.936764706 13.0541176,0 12,0 C10.9458824,0 10.0235294,0.936764706 10.0235294,2.00735294 L10.0235294,2.94411765 C6.20235294,3.88088235 3.43529412,7.22647059 3.43529412,11.375 L3.43529412,18.7352941 C3.43529412,18.7352941 1.14656766,20.8837905 0.8,21.4117647 C0.453432343,21.9397389 0.481640628,22.75 1.6,22.75 C2.71835937,22.75 22.4,22.75 22.4,22.75 C22.4,22.75 24.1734725,22.8947893 23.2,21.4117647 C22.2265275,19.9287401 20.5647059,18.7352941 20.5647059,18.7352941 L20.5647059,11.375 Z" id="Shape"></path>
                <path d="M12,25.9522059 C13.4494118,25.9522059 14.6352941,24.7477941 14.6352941,23.2757353 L9.36470588,23.2757353 C9.36470588,24.7477941 10.5505882,25.9522059 12,25.9522059 L12,25.9522059 Z" id="Path"></path>
            </g>
        </g>
    </g>
</svg>